<?xml version="1.0" standalone="no"?>
<!DOCTYPE svg PUBLIC "-//W3C//DTD SVG 20010904//EN"
 "http://www.w3.org/TR/2001/REC-SVG-20010904/DTD/svg10.dtd">
<svg version="1.0" xmlns="http://www.w3.org/2000/svg"
 width="512.000000pt" height="512.000000pt" viewBox="0 0 512.000000 512.000000"
 preserveAspectRatio="xMidYMid meet">

<g transform="translate(0.000000,512.000000) scale(0.100000,-0.100000)"
fill="#000000" stroke="none">
<path d="M3720 4896 l0 -186 -242 -2 -243 -3 -91 -595 c-51 -327 -100 -646
-109 -707 l-18 -113 -58 0 c-54 0 -59 2 -60 23 0 12 -8 91 -18 175 -9 84 -15
155 -12 157 2 3 17 5 33 5 l28 0 0 70 0 70 -40 0 c-47 0 -44 -8 -63 169 -13
118 -13 124 5 129 15 4 18 15 18 73 0 67 -1 69 -25 69 -30 0 -29 -2 -50 195
-9 83 -18 160 -21 173 l-4 22 -284 0 -283 0 -6 -37 c-3 -21 -13 -109 -23 -195
-17 -154 -18 -158 -41 -158 -22 0 -23 -3 -23 -70 0 -56 3 -70 15 -70 8 0 15
-3 15 -7 0 -23 -31 -270 -35 -280 -2 -8 -22 -13 -45 -13 l-40 0 0 -70 0 -70
36 0 c37 0 37 0 31 -37 -3 -21 -11 -92 -18 -158 -6 -66 -15 -125 -18 -132 -4
-7 -99 64 -251 185 -135 108 -495 398 -801 644 l-557 447 -211 -197 c-208
-194 -210 -197 -192 -217 1004 -1123 1371 -1535 1371 -1540 0 -3 -7 -5 -15 -5
-12 0 -15 -14 -15 -70 l0 -70 110 0 110 0 0 -255 0 -255 -145 0 -145 0 0 -240
0 -240 220 0 220 0 0 -359 0 -358 -39 -26 c-22 -15 -83 -60 -136 -102 -168
-131 -245 -160 -425 -159 -104 0 -136 4 -190 23 -68 24 -174 91 -300 191 -132
104 -297 170 -427 170 l-53 0 0 -75 0 -75 53 0 c122 0 203 -38 393 -181 222
-167 314 -202 524 -203 212 0 314 39 540 210 200 151 263 176 445 175 175 -1
255 -33 445 -182 199 -156 322 -203 530 -203 210 1 302 36 521 201 211 159
273 184 458 184 169 -1 258 -36 427 -168 128 -100 185 -137 264 -169 68 -27
189 -54 246 -54 l34 0 0 74 0 73 -67 7 c-82 8 -171 38 -240 79 l-53 31 -2 236
-3 235 -37 3 -38 3 0 70 0 69 40 0 40 0 0 140 0 140 220 0 220 0 0 240 0 240
-145 0 -145 0 0 255 0 255 110 0 110 0 0 70 0 70 -189 0 -189 0 -6 28 c-3 15
-44 277 -91 582 -47 305 -88 569 -91 585 -5 28 -8 30 -44 27 -38 -4 -38 -4
-44 40 -4 23 -9 55 -12 70 -5 24 -2 28 23 33 15 4 33 8 39 10 7 2 -7 114 -42
342 -29 186 -53 341 -54 346 0 4 -108 7 -240 7 l-240 0 -2 183 -3 182 -72 3
-73 3 0 -185z m390 -348 c0 -7 9 -69 20 -138 160 -1036 270 -1750 270 -1754 0
-3 -11 -6 -25 -6 -14 0 -25 4 -25 8 0 13 -259 1693 -265 1720 l-5 22 -287 -2
-287 -3 -9 -42 -8 -43 -57 0 -57 0 -32 -213 c-47 -308 -212 -1376 -219 -1414
-5 -27 -11 -33 -31 -33 -21 0 -24 4 -20 23 3 12 70 442 148 954 l144 933 373
0 c291 0 372 -3 372 -12z m-1598 -148 c4 -36 9 -86 13 -112 l6 -48 -122 0
-122 0 6 48 c4 26 9 78 13 115 l7 68 96 -3 96 -3 7 -65z m-2088 -273 c24 -120
42 -217 41 -217 -2 0 -60 64 -131 142 l-127 142 82 79 c45 43 84 77 87 75 2
-3 24 -102 48 -221z m289 48 c81 -64 147 -120 147 -124 0 -6 -70 -75 -181
-179 l-46 -43 -46 233 c-53 261 -52 254 -34 241 6 -6 78 -63 160 -128z m3007
-70 l0 -145 -65 0 c-36 0 -65 3 -65 6 0 19 42 269 46 276 3 4 23 8 45 8 l39 0
0 -145z m252 25 c9 -63 19 -127 22 -142 l6 -28 -65 0 -65 0 0 146 0 145 42 -3
42 -3 18 -115z m-1422 -62 c0 -7 7 -69 15 -138 8 -69 15 -126 15 -127 0 -2
-76 -3 -170 -3 -93 0 -170 3 -170 8 0 4 7 63 15 132 8 69 15 128 15 133 0 4
63 7 140 7 105 0 140 -3 140 -12z m-1611 -444 c10 -142 18 -260 16 -262 -3 -3
-269 297 -272 306 -1 8 229 223 234 218 2 -1 12 -119 22 -262z m451 8 c3 -2
-58 -64 -135 -137 -77 -74 -143 -131 -146 -127 -3 4 -12 90 -18 192 -7 102
-15 218 -18 259 l-6 74 159 -128 c87 -71 161 -130 164 -133z m2330 33 l0 -145
-101 0 c-100 0 -101 0 -96 23 3 12 13 77 23 145 l18 122 78 0 78 0 0 -145z
m301 143 c0 -2 10 -67 23 -145 l22 -143 -98 0 -98 0 0 145 0 145 75 0 c41 0
75 -1 76 -2z m-1407 -320 c10 -84 18 -162 19 -173 2 -19 -5 -20 -226 -23
l-228 -2 5 32 c5 30 36 300 36 313 0 3 85 5 189 5 l188 0 17 -152z m-912 -105
l110 -88 -61 -3 -62 -3 3 -72 3 -72 93 -3 92 -3 0 -249 0 -250 -143 0 -144 0
-6 248 c-9 309 -9 582 -1 582 3 0 56 -39 116 -87z m-264 -403 l-3 -160 -153
172 c-84 94 -151 175 -150 180 2 5 71 72 153 149 l150 139 3 -160 c1 -88 1
-232 0 -320z m2282 245 l0 -145 -136 0 c-124 0 -135 1 -130 18 2 9 12 69 21
132 9 63 18 121 20 128 3 9 35 12 115 12 l110 0 0 -145z m370 138 c0 -5 9 -62
20 -128 11 -66 20 -128 20 -137 0 -16 -13 -18 -130 -18 l-130 0 0 145 0 145
110 0 c61 0 110 -3 110 -7z m-1103 -250 c-3 -16 -20 -125 -38 -244 l-33 -216
-95 -7 c-53 -3 -158 -6 -233 -6 l-138 0 0 -75 0 -75 450 0 450 0 0 -250 0
-250 -145 0 -145 0 0 170 0 170 -75 0 -75 0 0 -170 0 -170 -145 0 -145 0 -2
168 -3 167 -75 0 -75 0 -3 -167 -2 -168 -145 0 -145 0 0 170 0 170 -75 0 -75
0 0 -170 0 -170 -145 0 -145 0 0 250 0 250 283 2 282 3 3 73 3 72 -136 0 -135
0 0 250 0 250 481 0 482 0 -6 -27z m733 -328 l0 -145 -165 0 c-162 0 -165 0
-165 21 0 22 26 204 36 247 4 22 7 22 149 22 l145 0 0 -145z m459 8 c12 -76
21 -141 21 -145 0 -5 -74 -8 -165 -8 l-165 0 0 145 0 145 144 0 143 0 22 -137z
m-254 -553 l0 -75 -77 -3 -78 -3 0 81 0 81 78 -3 77 -3 0 -75z m295 0 l0 -80
-75 0 -75 0 0 80 0 80 75 0 75 0 0 -80z m290 0 l0 -80 -75 0 -75 0 0 80 0 80
75 0 75 0 0 -80z m-1380 -490 l0 -90 -845 0 -845 0 0 90 0 90 845 0 845 0 0
-90z m1840 0 l0 -90 -845 0 -845 0 0 90 0 90 845 0 845 0 0 -90z m-2770 -549
l0 -310 -52 6 c-48 4 -148 -5 -235 -23 l-33 -6 0 321 0 321 160 0 160 0 0
-309z m1549 306 c-23 -19 -536 -330 -544 -330 -9 0 -526 313 -544 329 -2 2
242 4 544 4 302 0 546 -2 544 -3z m661 -343 c0 -326 -1 -346 -17 -339 -71 30
-146 54 -188 60 -28 3 -65 8 -82 11 l-33 5 0 304 0 305 160 0 160 0 0 -346z
m-1547 44 c154 -95 195 -124 185 -133 -7 -7 -124 -80 -260 -164 l-247 -152
-35 23 -36 23 0 322 0 323 98 -61 c53 -33 186 -115 295 -181z m1077 -43 c0
-276 -1 -285 -20 -285 -10 0 -53 -11 -93 -24 l-75 -23 -196 121 c-108 67 -197
124 -199 128 -1 5 566 365 581 368 1 0 2 -128 2 -285z m-534 -293 c105 -64
193 -121 195 -125 6 -12 -192 -159 -257 -191 -194 -95 -474 -62 -637 77 l-38
32 262 163 c145 89 268 162 274 162 5 0 96 -53 201 -118z"/>
<path d="M2242 2928 l3 -73 270 0 270 0 3 73 3 72 -276 0 -276 0 3 -72z"/>
</g>
</svg>
